<?xml version="1.0" encoding="UTF-8" standalone="no"?>
<svg
   xmlns:dc="http://purl.org/dc/elements/1.1/"
   xmlns:cc="http://creativecommons.org/ns#"
   xmlns:rdf="http://www.w3.org/1999/02/22-rdf-syntax-ns#"
   xmlns:svg="http://www.w3.org/2000/svg"
   xmlns="http://www.w3.org/2000/svg"
   xmlns:sodipodi="http://sodipodi.sourceforge.net/DTD/sodipodi-0.dtd"
   xmlns:inkscape="http://www.inkscape.org/namespaces/inkscape"
   width="300"
   height="32.322178"
   viewBox="0 0 1304.3106 140.53121"
   version="1.1"
   id="svg11"
   sodipodi:docname="brandoriented-logotype.svg"
   inkscape:version="0.92.5 (2060ec1f9f, 2020-04-08)">
  <metadata
     id="metadata15">
    <rdf:RDF>
      <cc:Work
         rdf:about="">
        <dc:format>image/svg+xml</dc:format>
        <dc:type
           rdf:resource="http://purl.org/dc/dcmitype/StillImage" />
        <dc:title></dc:title>
      </cc:Work>
    </rdf:RDF>
  </metadata>
  <sodipodi:namedview
     pagecolor="#ffffff"
     bordercolor="#666666"
     borderopacity="1"
     objecttolerance="10"
     gridtolerance="10"
     guidetolerance="10"
     inkscape:pageopacity="0"
     inkscape:pageshadow="2"
     inkscape:window-width="1864"
     inkscape:window-height="1016"
     id="namedview13"
     showgrid="false"
     viewbox-width="20999.4"
     fit-margin-top="0"
     fit-margin-left="0"
     fit-margin-right="0"
     fit-margin-bottom="0"
     inkscape:zoom="2.2112093"
     inkscape:cx="290.17893"
     inkscape:cy="-56.831751"
     inkscape:window-x="56"
     inkscape:window-y="27"
     inkscape:window-maximized="1"
     inkscape:current-layer="svg11" />
  <defs
     id="defs4">
    <style
       id="style2">
      .cls-1 {
        fill: #303943;
      }

      .cls-1, .cls-2, .cls-3 {
        fill-rule: evenodd;
      }

      .cls-2 {
        fill: #61a4d5;
      }

      .cls-3 {
        fill: #62a4d4;
      }
    </style>
  </defs>
  <path
     id="brand"
     class="cls-1"
     d="M -0.3,136.4914 V 1.8249 h 12.5319 v 54.2055 q 7.8683,-9.6443 17.6166,-14.4213 9.7468,-4.7767 21.3729,-4.7779 20.6565,0 35.2775,14.9574 14.6201,14.9604 14.6217,36.3014 0,21.0772 -14.7561,35.9891 -14.7554,14.9139 -35.5013,14.9123 -11.8921,0 -21.55,-5.0901 -9.6593,-5.0902 -17.0813,-15.2704 v 17.8605 z m 50.1284,-9.5557 q 10.4483,0 19.2908,-5.1336 8.8402,-5.1344 14.0647,-14.4228 5.2242,-9.2865 5.2253,-19.6459 0,-10.3593 -5.2688,-19.7359 Q 77.8696,58.6205 68.984,53.3967 60.0984,48.173 50.0071,48.173 q -10.2723,0 -19.5138,5.2237 -9.2433,5.2242 -14.1991,14.0647 -4.9584,8.8402 -4.9565,19.9147 0,16.8785 11.1172,28.2195 11.1196,11.3425 27.3735,11.3401 z M 119.2018,39.332 h 12.8007 v 14.1983 q 5.7276,-8.3926 12.0852,-12.5466 6.3533,-4.1521 13.2474,-4.1525 5.1904,0 11.1001,3.3041 l -6.5351,10.5377 q -3.94,-1.6956 -6.6245,-1.6967 -6.266,0 -12.0837,5.1352 -5.8196,5.1344 -8.8626,15.9401 -2.3284,8.3048 -2.3268,33.5769 v 32.8629 h -12.8007 z m 156.9196,0 v 97.1594 h -12.3532 v -16.6999 q -7.8776,9.558 -17.6796,14.3786 -9.8019,4.8205 -21.4381,4.8213 -20.6775,0 -35.314,-14.9565 -14.6353,-14.9582 -14.6349,-36.3908 0,-20.9852 14.7693,-35.8998 14.7705,-14.9127 35.5378,-14.9131 11.9935,0 21.7069,5.0902 9.7118,5.0901 17.0526,15.2704 V 39.332 Z m -50.0842,9.5541 q -10.4599,0 -19.3125,5.1298 -8.8526,5.1298 -14.0826,14.4065 -5.2311,9.2772 -5.2299,19.6233 0,10.2596 5.2742,19.6233 5.2754,9.3669 14.1711,14.5837 8.8961,5.2218 19.0912,5.2199 10.2816,0 19.4912,-5.1733 9.2084,-5.1752 14.1711,-14.0041 4.962,-8.8308 4.9628,-19.8929 0,-16.8564 -11.132,-28.1869 -11.1323,-11.3269 -27.4046,-11.3293 z m 78.2804,-9.5541 h 12.5319 v 17.4131 q 7.5202,-9.9997 16.6502,-14.9573 9.1299,-4.9577 19.8719,-4.9566 10.9202,0 19.3809,5.5369 8.4591,5.5376 12.4861,14.913 4.0285,9.3762 4.0289,29.2015 v 50.0088 H 376.7348 V 90.1441 q 0,-16.7877 -1.3937,-22.4147 -2.1792,-9.6442 -8.3562,-14.5114 -6.177,-4.8671 -16.1133,-4.8664 -11.3713,0 -20.3692,7.5016 -8.9986,7.4989 -11.8622,18.5738 -1.7911,7.2331 -1.7907,26.4334 v 35.631 H 304.3176 Z M 513.335,1.8249 v 134.6665 h -12.3532 v -16.6999 q -7.8788,9.558 -17.6796,14.3786 -9.8007,4.8205 -21.4388,4.8213 -20.6764,0 -35.3133,-14.9565 -14.6353,-14.9582 -14.6349,-36.3908 0,-20.9852 14.7693,-35.8998 14.7693,-14.9127 35.537,-14.9131 11.9951,0 21.7069,5.0902 9.7118,5.0901 17.0534,15.2704 V 1.8249 Z m -50.0841,47.0612 q -10.4612,0 -19.3126,5.1298 -8.8541,5.1298 -14.0833,14.4065 -5.2292,9.2768 -5.2292,19.6233 0,10.2596 5.2742,19.6233 5.2743,9.3669 14.1712,14.5837 8.8961,5.2218 19.0903,5.2199 10.2829,0 19.492,-5.1733 9.2084,-5.1752 14.1712,-14.0041 4.9619,-8.8308 4.9627,-19.8929 0,-16.8564 -11.1327,-28.1869 -11.1312,-11.3269 -27.4038,-11.3293 z"
     inkscape:connector-curvature="0"
     style="fill:#303943;fill-rule:evenodd;stroke-width:0.07768835" />
  <path
     id="oriented"
     class="cls-2"
     d="m 584.1782,37.7386 q 13.7664,0 25.8796,6.9197 12.1194,6.9186 18.9093,18.7789 6.7939,11.8606 6.7977,25.6084 0,13.8394 -6.8443,25.8787 -6.8288,12.039 -18.6374,18.8239 -11.8048,6.7822 -26.0155,6.783 -20.92,0 -35.7157,-14.9597 -14.7973,-14.9616 -14.7957,-36.3465 0,-22.9114 16.7177,-38.1877 14.661,-13.2963 33.7043,-13.2987 z m 0.4025,23.0929 q -11.3736,0 -18.9405,7.9522 -7.5688,7.9522 -7.5676,20.352 0,12.7591 7.4783,20.6659 7.4755,7.9079 18.9404,7.9079 11.4621,0 19.0717,-7.9973 7.6096,-7.9972 7.6135,-20.5765 0,-12.5797 -7.4736,-20.4421 -7.4814,-7.8613 -19.1222,-7.8621 z M 649.974,40.255 h 20.9215 v 12.3097 q 3.4028,-7.2786 9.0352,-11.052 5.6285,-3.7745 12.3369,-3.7741 4.7312,0 9.9208,2.5164 l -7.5979,21.1157 q -4.3001,-2.1571 -7.0619,-2.1567 -5.6402,0 -9.5246,7.0091 -3.8805,7.0082 -3.8844,27.4954 l 0.085,4.7623 v 39.5356 h -24.231 z M 723.778,3.4912773e-8 q 6.4209,0 11.0084,4.672099965087228 4.5914,4.6742 4.5914,11.3223 0,6.5597 -4.5448,11.1864 -4.5447,4.6287 -10.8763,4.6271 -6.5026,0 -11.1017,-4.7165 -4.5914,-4.7172 -4.5914,-11.4567 0,-6.4687 4.5526,-11.0519 Q 717.3609,-3.9996509e-4 723.778,3.4912773e-8 Z M 711.5731,40.255 h 24.4097 v 97.7614 h -24.4097 z m 144.0265,55.9791 h -78.4031 q 1.7014,10.4238 9.074,16.5779 7.3765,6.1564 18.8161,6.1552 13.6809,0 23.5163,-9.6147 l 20.5641,9.7049 q -7.6912,10.9645 -18.4199,16.219 -10.721,5.2556 -25.4818,5.2548 -22.887,0 -37.2749,-14.5106 -14.4034,-14.5107 -14.3956,-36.3457 0,-22.3731 14.349,-37.1553 14.3452,-14.7798 35.9853,-14.781 22.9685,0 37.3681,14.781 14.3917,14.7822 14.3956,39.0415 z M 831.1977,76.9153 q -2.4239,-8.1747 -9.5402,-13.2987 -7.1201,-5.1204 -16.5243,-5.1212 -10.2082,0 -17.9071,5.7505 -4.8361,3.5939 -8.9575,12.6694 z m 44.158,-36.6603 h 24.4097 v 10.0179 q 8.3088,-7.0328 15.0405,-9.7833 6.7472,-2.7502 13.7974,-2.751 14.4617,0 24.5495,10.1539 8.472,8.6257 8.4758,25.5191 v 64.6048 H 937.4909 V 95.2047 q 0,-17.4997 -1.5616,-23.2443 -1.5615,-5.7447 -5.4382,-8.7509 -3.8805,-3.0065 -9.5867,-3.0065 -7.3998,0 -12.7098,4.9814 -5.3022,4.9817 -7.3571,13.7765 -1.0721,4.5773 -1.0721,19.8346 v 39.2209 H 875.3557 Z M 988.1825,4.2231 h 24.4097 V 40.255 h 14.4811 v 21.1157 h -14.4811 v 76.6457 H 988.1825 V 61.3707 H 975.6669 V 40.255 h 12.5156 z m 149.3947,92.011 h -78.4108 q 1.7013,10.4238 9.074,16.5779 7.3765,6.1564 18.8239,6.1552 13.6692,0 23.5085,-9.6147 l 20.5641,9.7049 q -7.6912,10.9645 -18.4199,16.219 -10.721,5.2556 -25.4741,5.2548 -22.8869,0 -37.2826,-14.5106 -14.3918,-14.5107 -14.3957,-36.3457 0,-22.3731 14.3491,-37.1553 14.3568,-14.7798 35.9852,-14.781 22.9802,0 37.3681,14.781 14.3918,14.7822 14.3957,39.0415 z m -24.4097,-19.3188 q -2.4238,-8.1747 -9.5401,-13.2987 -7.1201,-5.1204 -16.5243,-5.1212 -10.2082,0 -17.9072,5.7505 -4.8361,3.5939 -8.9574,12.6694 z M 1229.1174,2.5155 h 24.4097 v 135.5009 h -24.4097 v -10.3341 q -7.1434,6.83 -14.3335,9.8408 -7.1784,3.0089 -15.5765,3.0081 -18.8433,0 -32.598,-14.6893 -13.7509,-14.6909 -13.7509,-36.5267 0,-22.6435 13.308,-37.1102 13.3081,-14.4652 32.3262,-14.4664 8.7516,0 16.431,3.3251 7.6679,3.3251 14.1937,9.9736 z m -25.6527,57.867 q -11.3153,0 -18.8006,8.0415 -7.493,8.0431 -7.4891,20.6216 0,12.6694 7.6212,20.8461 7.6212,8.1782 18.754,8.1767 11.4901,0 19.0647,-8.0415 7.5746,-8.0416 7.5746,-21.0707 0,-12.7591 -7.5746,-20.6674 -7.563,-7.9056 -19.1502,-7.9063 z"
     inkscape:connector-curvature="0"
     style="fill:#61a4d5;fill-rule:evenodd;stroke-width:0.07768835" />
  <path
     id="tm"
     class="cls-2"
     d="m 1277.3619,136.8604 h -4.0476 v -18.4416 h -4.1874 v -3.604 h 12.4224 v 3.604 h -4.1874 z m 14.3335,0 -4.1641,-18.7734 h -0.1632 a 30.08093,30.08093 0 0 1 0.2875,3.9816 v 14.7918 h -3.7679 v -22.0456 h 6.2539 l 3.7368,17.3253 h 0.1166 l 3.7135,-17.3253 h 6.3393 v 22.0456 h -3.8611 v -14.9449 a 35.433192,35.433192 0 0 1 0.2098,-3.7982 h -0.1166 l -4.1407,18.7431 z"
     inkscape:connector-curvature="0"
     style="fill:#61a4d5;fill-rule:evenodd;stroke-width:0.07768835" />
</svg>
